<mxfile host="app.diagrams.net" agent="Mozilla/5.0 (X11; Linux x86_64; rv:137.0) Gecko/20100101 Firefox/137.0" version="26.1.1">
  <diagram name="Page-1" id="4YZ19eFIGqYHpETlewSG">
    <mxGraphModel dx="880" dy="447" grid="1" gridSize="10" guides="1" tooltips="1" connect="1" arrows="1" fold="1" page="1" pageScale="1" pageWidth="850" pageHeight="1100" math="0" shadow="0">
      <root>
        <mxCell id="0" />
        <mxCell id="1" parent="0" />
        <mxCell id="I1DcaIZY9cXWFdfK6EU6-31" style="edgeStyle=orthogonalEdgeStyle;rounded=0;orthogonalLoop=1;jettySize=auto;html=1;" edge="1" parent="1" source="I1DcaIZY9cXWFdfK6EU6-1" target="I1DcaIZY9cXWFdfK6EU6-23">
          <mxGeometry relative="1" as="geometry" />
        </mxCell>
        <mxCell id="I1DcaIZY9cXWFdfK6EU6-1" value="&lt;div align=&quot;center&quot;&gt;&lt;span&gt;&lt;span&gt;&lt;font style=&quot;font-size: 24px;&quot;&gt;ESP32&lt;/font&gt;&lt;/span&gt;&lt;/span&gt;&lt;/div&gt;" style="whiteSpace=wrap;html=1;aspect=fixed;align=center;fontStyle=1" vertex="1" parent="1">
          <mxGeometry x="290" y="165" width="80" height="80" as="geometry" />
        </mxCell>
        <mxCell id="I1DcaIZY9cXWFdfK6EU6-30" style="edgeStyle=orthogonalEdgeStyle;rounded=0;orthogonalLoop=1;jettySize=auto;html=1;" edge="1" parent="1" source="I1DcaIZY9cXWFdfK6EU6-12" target="I1DcaIZY9cXWFdfK6EU6-1">
          <mxGeometry relative="1" as="geometry" />
        </mxCell>
        <mxCell id="I1DcaIZY9cXWFdfK6EU6-12" value="" style="swimlane;startSize=0;" vertex="1" parent="1">
          <mxGeometry x="340" y="340" width="370" height="100" as="geometry" />
        </mxCell>
        <mxCell id="I1DcaIZY9cXWFdfK6EU6-4" value="&lt;div&gt;Temperature humidity&lt;/div&gt;" style="whiteSpace=wrap;html=1;aspect=fixed;align=center;fontStyle=1" vertex="1" parent="I1DcaIZY9cXWFdfK6EU6-12">
          <mxGeometry x="10" y="10" width="80" height="80" as="geometry" />
        </mxCell>
        <mxCell id="I1DcaIZY9cXWFdfK6EU6-6" value="Light" style="whiteSpace=wrap;html=1;aspect=fixed;align=center;fontStyle=1" vertex="1" parent="I1DcaIZY9cXWFdfK6EU6-12">
          <mxGeometry x="100" y="10" width="80" height="80" as="geometry" />
        </mxCell>
        <mxCell id="I1DcaIZY9cXWFdfK6EU6-8" value="Microphone" style="whiteSpace=wrap;html=1;aspect=fixed;align=center;fontStyle=1" vertex="1" parent="I1DcaIZY9cXWFdfK6EU6-12">
          <mxGeometry x="190" y="10" width="80" height="80" as="geometry" />
        </mxCell>
        <mxCell id="I1DcaIZY9cXWFdfK6EU6-14" value="&lt;div&gt;Quiet wake up actuator&lt;/div&gt;" style="whiteSpace=wrap;html=1;aspect=fixed;align=center;fontStyle=1" vertex="1" parent="I1DcaIZY9cXWFdfK6EU6-12">
          <mxGeometry x="275" y="10" width="80" height="80" as="geometry" />
        </mxCell>
        <mxCell id="I1DcaIZY9cXWFdfK6EU6-21" value="Sensors and actuators" style="text;html=1;align=center;verticalAlign=middle;whiteSpace=wrap;rounded=0;" vertex="1" parent="1">
          <mxGeometry x="340" y="310" width="150" height="30" as="geometry" />
        </mxCell>
        <mxCell id="I1DcaIZY9cXWFdfK6EU6-23" value="" style="swimlane;startSize=0;" vertex="1" parent="1">
          <mxGeometry x="20" y="170" width="200" height="170" as="geometry" />
        </mxCell>
        <mxCell id="I1DcaIZY9cXWFdfK6EU6-10" value="Battery and power " style="whiteSpace=wrap;html=1;aspect=fixed;align=center;fontStyle=1" vertex="1" parent="I1DcaIZY9cXWFdfK6EU6-23">
          <mxGeometry x="20" y="10" width="70" height="70" as="geometry" />
        </mxCell>
        <mxCell id="I1DcaIZY9cXWFdfK6EU6-9" value="SD card" style="whiteSpace=wrap;html=1;aspect=fixed;align=center;fontStyle=1" vertex="1" parent="I1DcaIZY9cXWFdfK6EU6-23">
          <mxGeometry x="110" y="95" width="60" height="60" as="geometry" />
        </mxCell>
        <mxCell id="I1DcaIZY9cXWFdfK6EU6-37" value="&lt;div&gt;Timer/Clock&lt;/div&gt;" style="whiteSpace=wrap;html=1;aspect=fixed;align=center;fontStyle=1" vertex="1" parent="I1DcaIZY9cXWFdfK6EU6-23">
          <mxGeometry x="20" y="90" width="70" height="70" as="geometry" />
        </mxCell>
        <mxCell id="I1DcaIZY9cXWFdfK6EU6-29" style="edgeStyle=orthogonalEdgeStyle;rounded=0;orthogonalLoop=1;jettySize=auto;html=1;entryX=0.5;entryY=0;entryDx=0;entryDy=0;" edge="1" parent="1" source="I1DcaIZY9cXWFdfK6EU6-26" target="I1DcaIZY9cXWFdfK6EU6-1">
          <mxGeometry relative="1" as="geometry" />
        </mxCell>
        <mxCell id="I1DcaIZY9cXWFdfK6EU6-26" value="" style="swimlane;startSize=0;" vertex="1" parent="1">
          <mxGeometry x="410" y="50" width="300" height="110" as="geometry" />
        </mxCell>
        <mxCell id="I1DcaIZY9cXWFdfK6EU6-3" value="Display" style="whiteSpace=wrap;html=1;aspect=fixed;align=center;fontStyle=1" vertex="1" parent="I1DcaIZY9cXWFdfK6EU6-26">
          <mxGeometry x="20" y="10" width="80" height="80" as="geometry" />
        </mxCell>
        <mxCell id="I1DcaIZY9cXWFdfK6EU6-7" value="Button" style="whiteSpace=wrap;html=1;aspect=fixed;align=center;fontStyle=1" vertex="1" parent="I1DcaIZY9cXWFdfK6EU6-26">
          <mxGeometry x="110" y="10" width="80" height="80" as="geometry" />
        </mxCell>
        <mxCell id="I1DcaIZY9cXWFdfK6EU6-33" value="Wifi configuration panel" style="whiteSpace=wrap;html=1;aspect=fixed;align=center;fontStyle=1" vertex="1" parent="I1DcaIZY9cXWFdfK6EU6-26">
          <mxGeometry x="200" y="10" width="90" height="90" as="geometry" />
        </mxCell>
        <mxCell id="I1DcaIZY9cXWFdfK6EU6-22" value="Additional systems" style="text;html=1;align=center;verticalAlign=middle;whiteSpace=wrap;rounded=0;" vertex="1" parent="1">
          <mxGeometry x="35" y="130" width="150" height="30" as="geometry" />
        </mxCell>
        <mxCell id="I1DcaIZY9cXWFdfK6EU6-34" value="User interface" style="text;html=1;align=center;verticalAlign=middle;resizable=0;points=[];autosize=1;strokeColor=none;fillColor=none;" vertex="1" parent="1">
          <mxGeometry x="430" y="20" width="100" height="30" as="geometry" />
        </mxCell>
        <mxCell id="I1DcaIZY9cXWFdfK6EU6-36" style="edgeStyle=orthogonalEdgeStyle;rounded=0;orthogonalLoop=1;jettySize=auto;html=1;entryX=0.5;entryY=1;entryDx=0;entryDy=0;" edge="1" parent="1" source="I1DcaIZY9cXWFdfK6EU6-12" target="I1DcaIZY9cXWFdfK6EU6-9">
          <mxGeometry relative="1" as="geometry">
            <mxPoint x="170" y="290" as="targetPoint" />
          </mxGeometry>
        </mxCell>
      </root>
    </mxGraphModel>
  </diagram>
</mxfile>
